<?xml version="1.0" standalone="no"?>
<!DOCTYPE svg PUBLIC "-//W3C//DTD SVG 20010904//EN"
 "http://www.w3.org/TR/2001/REC-SVG-20010904/DTD/svg10.dtd">
<svg version="1.0" xmlns="http://www.w3.org/2000/svg"
 width="700.000000pt" height="700.000000pt" viewBox="0 0 700.000000 700.000000"
 preserveAspectRatio="xMidYMid meet">
<metadata>
Created by potrace 1.14, written by Peter Selinger 2001-2017
</metadata>
<g transform="translate(0.000000,700.000000) scale(0.100000,-0.100000)"
fill="#000000" stroke="none">
<path d="M4450 5561 c0 -485 -4 -798 -10 -832 -21 -111 -90 -200 -190 -248
l-55 -26 -1770 -5 -1770 -5 -3 -947 -2 -948 827 -2 828 -3 56 -28 c66 -32 132
-99 162 -165 22 -47 22 -53 27 -872 l5 -825 945 0 945 0 5 1770 5 1770 26 55
c50 105 143 173 261 191 35 5 408 9 831 9 l767 0 0 945 0 945 -945 0 -945 0 0
-779z"/>
</g>
</svg>
