<svg width="369.7" height="70" viewBox="0 0 369.7 70" fill="#ffffff" xmlns="http://www.w3.org/2000/svg"><g xmlns="http://www.w3.org/2000/svg"><path d="M369.7,23h-18.9c-2.2,0-4.1,1.8-4.1,4.1v41.8h-22.9V49.9c0-2.2-1.8-4.1-4.1-4.1H301v-23h41.8   c2.2,0,4.1-1.8,4.1-4.1V0l22.9,0L369.7,23L369.7,23z"></path><path d="M50.4,68.9l-7.2-19.2H15.9L8.8,68.9H0L25.2,4.5H34l25.1,64.4H50.4z M18.7,42.3h21.8l-7.3-19.4   c-1.3-3.4-2.8-7.6-3.7-10.4h-0.1c-1.1,3.4-2.1,6.4-3.6,10.4L18.7,42.3z"></path><path d="M114.5,68.9l0.1-0.3v0c-3.1-4-3.7-8.4-3.7-15.8c0-6.6-2.3-11.3-8.4-13.6c5.6-1.9,9.9-7.8,9.9-15.7   c0-17.5-14-19-25.4-19H65.3v64.4h8.3V42.2h14.3c11.3,0,14.7,2.6,14.7,11.5s0.6,12,2.8,15.2H114.5z M104.3,23.8   c0,10.7-9.4,11.3-17.3,11.3H73.5V11.6h13.5C94.9,11.6,104.3,11.6,104.3,23.8z"></path><path d="M119.1,36.7c0-19.5,10.8-33.3,30.5-33.3S180,17.2,180,36.7S169.1,70,149.6,70S119.1,58.1,119.1,36.7z    M165.7,55.6c3.2-4.6,5-10.7,5-19c0-8.3-1.7-14.3-5-18.9c-3.3-4.8-8.5-7.3-15.7-7.3c-8.4,0-13.9,3.3-16.6,6.9   c-3.1,4.1-4.9,11-4.9,19.2c0,8.9,2.1,15.7,4.6,19c3.6,4.6,9.3,7.2,16.6,7.2C157.2,62.8,162.4,60.4,165.7,55.6z"></path><path d="M201.3,41.4v27.5h8.4V41.4l23.1-36.9H223l-10.9,18.4c-2,3.5-4,7.1-6.7,11.9c-2.4-4.3-6.1-10.8-6.7-11.9   L187.9,4.5h-9.7L201.3,41.4z"></path><path d="M273.9,68.9l-7.2-19.2h-27.3l-7.1,19.2h-8.8l25.2-64.4h8.8l25.1,64.4H273.9z M242.2,42.3H264l-7.3-19.4   c-1.3-3.4-2.8-7.6-3.7-10.4h-0.1c-1.1,3.4-2.1,6.4-3.6,10.4L242.2,42.3z"></path></g></svg>