<?xml version="1.0" encoding="UTF-8"?>
<svg xmlns="http://www.w3.org/2000/svg" version="1.1" viewBox="0 0 64 64">
  <defs>
    <style>
      .cls-1 {
        fill: #fff;
      }
    </style>
  </defs>
  <!-- Generator: Adobe Illustrator 28.6.0, SVG Export Plug-In . SVG Version: 1.2.0 Build 709)  -->
  <g>
    <g id="Gear">
      <path class="cls-1" d="M54.8,30h-13.7l-2.8-4.8,6.9-11.9c.6-1,.2-2.2-.7-2.7-1-.6-2.2-.2-2.7.7l-6.9,11.9h-5.5l-6.9-11.9c-.6-1-1.8-1.3-2.7-.7-1,.6-1.3,1.8-.7,2.7l6.9,11.9-2.8,4.8h-13.7c-1.1,0-2,.9-2,2s.9,2,2,2h13.7l2.8,4.8-6.9,11.9c-.6,1-.2,2.2.7,2.7.3.2.7.3,1,.3.7,0,1.4-.4,1.7-1l6.9-11.9h5.5l6.9,11.9c.4.6,1,1,1.7,1s.7,0,1-.3c1-.6,1.3-1.8.7-2.7l-6.9-11.9,2.8-4.8h13.7c1.1,0,2-.9,2-2s-.9-2-2-2ZM35.9,34.8l-1.2,2h-5.5l-1.2-2-.5-.8-1.2-2,1.2-2,.5-.8,1.2-2h5.5l1.2,2,.5.8,1.2,2-1.2,2-.5.8Z"/>
    </g>
  </g>
</svg>