<?xml version="1.0" encoding="UTF-8"?>
<svg xmlns="http://www.w3.org/2000/svg" version="1.1" viewBox="0 0 64 64">
  <defs>
    <style>
      .cls-1 {
        fill: #fcfcfc;
      }
    </style>
  </defs>
  <!-- Generator: Adobe Illustrator 28.6.0, SVG Export Plug-In . SVG Version: 1.2.0 Build 709)  -->
  <g>
    <g id="Layer_2">
      <path class="cls-1" d="M31,38.8v11.2c.3-.1.6-.2,1-.2s.7,0,1,.2v-11.2c-.3,0-.7,0-1,0s-.7,0-1,0Z"/>
      <path class="cls-1" d="M33,25.2v-11.2c-.3.1-.6.2-1,.2s-.7,0-1-.2v11.2c.3,0,.7,0,1,0s.7,0,1,0Z"/>
      <path class="cls-1" d="M32,10.1c.6,0,1,.4,1,1v2.9c1.1-.4,1.9-1.5,1.9-2.7s-1.3-2.9-2.9-2.9-2.9,1.3-2.9,2.9.8,2.3,1.9,2.7v-2.9c0-.6.4-1,1-1Z"/>
      <path class="cls-1" d="M33,14v-2.9c0-.6-.4-1-1-1s-1,.4-1,1v2.9c.3.1.6.2,1,.2s.7,0,1-.2Z"/>
      <path class="cls-1" d="M32,53.9c-.6,0-1-.4-1-1v-2.9c-1.1.4-1.9,1.5-1.9,2.7s1.3,2.9,2.9,2.9,2.9-1.3,2.9-2.9-.8-2.3-1.9-2.7v2.9c0,.6-.4,1-1,1Z"/>
      <path class="cls-1" d="M31,50v2.9c0,.6.4,1,1,1s1-.4,1-1v-2.9c-.3-.1-.6-.2-1-.2s-.7,0-1,.2Z"/>
      <path class="cls-1" d="M25.2,31h-11.2c.1.3.2.6.2,1s0,.7-.2,1h11.2c0-.3,0-.7,0-1s0-.7,0-1Z"/>
      <path class="cls-1" d="M50,31h-11.2c0,.3,0,.7,0,1s0,.7,0,1h11.2c-.1-.3-.2-.6-.2-1s0-.7.2-1Z"/>
      <path class="cls-1" d="M52.8,29.1c-1.3,0-2.3.8-2.7,1.9h2.9c.6,0,1,.4,1,1s-.4,1-1,1h-2.9c.4,1.1,1.5,1.9,2.7,1.9s2.9-1.3,2.9-2.9-1.3-2.9-2.9-2.9Z"/>
      <path class="cls-1" d="M53.9,32c0-.6-.4-1-1-1h-2.9c-.1.3-.2.6-.2,1s0,.7.2,1h2.9c.6,0,1-.4,1-1Z"/>
      <path class="cls-1" d="M10.1,32c0-.6.4-1,1-1h2.9c-.4-1.1-1.5-1.9-2.7-1.9s-2.9,1.3-2.9,2.9,1.3,2.9,2.9,2.9,2.3-.8,2.7-1.9h-2.9c-.6,0-1-.4-1-1Z"/>
      <path class="cls-1" d="M14,31h-2.9c-.6,0-1,.4-1,1s.4,1,1,1h2.9c.1-.3.2-.6.2-1s0-.7-.2-1Z"/>
      <path class="cls-1" d="M37.5,27.9l8-8c-.3-.1-.6-.3-.8-.6s-.4-.5-.6-.8l-8,8c.5.4,1,.9,1.4,1.4Z"/>
      <path class="cls-1" d="M26.5,36.1l-8,8c.3.1.6.3.8.6s.4.5.6.8l8-8c-.5-.4-1-.9-1.4-1.4Z"/>
      <path class="cls-1" d="M47.5,16.5c.4.4.4,1,0,1.4l-2,2c1.1.5,2.4.3,3.3-.6,1.1-1.1,1.1-3,0-4.1s-3-1.1-4.1,0c-.9.9-1.1,2.2-.6,3.3l2-2c.4-.4,1-.4,1.4,0Z"/>
      <path class="cls-1" d="M45.5,20l2-2c.4-.4.4-1,0-1.4s-1-.4-1.4,0l-2,2c.1.3.3.6.6.8s.5.4.8.6Z"/>
      <path class="cls-1" d="M17.2,47.8c-.3,0-.5,0-.7-.3-.4-.4-.4-1,0-1.4l2-2c-1.1-.5-2.4-.3-3.3.6-1.1,1.1-1.1,3,0,4.1s3,1.1,4.1,0c.9-.9,1.1-2.2.6-3.3l-2,2c-.2.2-.5.3-.7.3Z"/>
      <path class="cls-1" d="M18.5,44l-2,2c-.4.4-.4,1,0,1.4s.5.3.7.3.5,0,.7-.3l2-2c-.1-.3-.3-.6-.6-.8s-.5-.4-.8-.6Z"/>
      <path class="cls-1" d="M27.9,26.5l-8-8c-.1.3-.3.6-.6.8s-.5.4-.8.6l8,8c.4-.5.9-1,1.4-1.4Z"/>
      <path class="cls-1" d="M36.1,37.5l8,8c.1-.3.3-.6.6-.8s.5-.4.8-.6l-8-8c-.4.5-.9,1-1.4,1.4Z"/>
      <path class="cls-1" d="M47.5,47.5c-.2.2-.5.3-.7.3s-.5,0-.7-.3l-2-2c-.5,1.1-.3,2.4.6,3.3,1.1,1.1,3,1.1,4.1,0s1.1-3,0-4.1c-.9-.9-2.2-1.1-3.3-.6l2,2c.4.4.4,1,0,1.4Z"/>
      <path class="cls-1" d="M44,45.5l2,2c.2.2.5.3.7.3s.5,0,.7-.3c.4-.4.4-1,0-1.4l-2-2c-.3.1-.6.3-.8.6s-.4.5-.6.8Z"/>
      <path class="cls-1" d="M16.5,16.5c.4-.4,1-.4,1.4,0l2,2c.5-1.1.3-2.4-.6-3.3-1.1-1.1-3-1.1-4.1,0s-1.1,3,0,4.1c.9.9,2.2,1.1,3.3.6l-2-2c-.4-.4-.4-1,0-1.4Z"/>
      <path class="cls-1" d="M20,18.5l-2-2c-.4-.4-1-.4-1.4,0s-.4,1,0,1.4l2,2c.3-.1.6-.3.8-.6s.4-.5.6-.8Z"/>
      <path class="cls-1" d="M33,36.8v2c1.1-.2,2.2-.6,3.1-1.3l-1.4-1.4c-.5.3-1.1.6-1.7.7Z"/>
      <path class="cls-1" d="M36.1,34.7l1.4,1.4c.7-.9,1.1-1.9,1.3-3.1h-2c-.1.6-.4,1.2-.7,1.7Z"/>
      <path class="cls-1" d="M36.8,31h2c-.2-1.1-.6-2.2-1.3-3.1l-1.4,1.4c.3.5.6,1.1.7,1.7Z"/>
      <path class="cls-1" d="M31,27.2v-2c-1.1.2-2.2.6-3.1,1.3l1.4,1.4c.5-.3,1.1-.6,1.7-.7Z"/>
      <path class="cls-1" d="M27.2,33h-2c.2,1.1.6,2.2,1.3,3.1l1.4-1.4c-.3-.5-.6-1.1-.7-1.7Z"/>
      <path class="cls-1" d="M34.7,27.9l1.4-1.4c-.9-.7-1.9-1.1-3.1-1.3v2c.6.1,1.2.4,1.7.7Z"/>
      <path class="cls-1" d="M27.9,29.3l-1.4-1.4c-.7.9-1.1,1.9-1.3,3.1h2c.1-.6.4-1.2.7-1.7Z"/>
      <path class="cls-1" d="M29.3,36.1l-1.4,1.4c.9.7,1.9,1.1,3.1,1.3v-2c-.6-.1-1.2-.4-1.7-.7Z"/>
      <path class="cls-1" d="M32,27.1c.3,0,.7,0,1,.1v-2c-.3,0-.7,0-1,0s-.7,0-1,0v2c.3,0,.7-.1,1-.1Z"/>
      <path class="cls-1" d="M32,36.9c-.3,0-.7,0-1-.1v2c.3,0,.7,0,1,0s.7,0,1,0v-2c-.3,0-.7.1-1,.1Z"/>
      <path class="cls-1" d="M27.1,32c0-.3,0-.7.1-1h-2c0,.3,0,.7,0,1s0,.7,0,1h2c0-.3-.1-.7-.1-1Z"/>
      <path class="cls-1" d="M38.8,31h-2c0,.3.1.7.1,1s0,.7-.1,1h2c0-.3,0-.7,0-1s0-.7,0-1Z"/>
      <path class="cls-1" d="M36.1,29.3l1.4-1.4c-.4-.5-.9-1-1.4-1.4l-1.4,1.4c.6.4,1,.9,1.4,1.4Z"/>
      <path class="cls-1" d="M27.9,34.7l-1.4,1.4c.4.5.9,1,1.4,1.4l1.4-1.4c-.6-.4-1-.9-1.4-1.4Z"/>
      <path class="cls-1" d="M29.3,27.9l-1.4-1.4c-.5.4-1,.9-1.4,1.4l1.4,1.4c.4-.6.9-1,1.4-1.4Z"/>
      <path class="cls-1" d="M34.7,36.1l1.4,1.4c.5-.4,1-.9,1.4-1.4l-1.4-1.4c-.4.6-.9,1-1.4,1.4Z"/>
    </g>
  </g>
</svg>