<?xml version="1.0" encoding="UTF-8"?>
<svg xmlns="http://www.w3.org/2000/svg" version="1.1" viewBox="0 0 66 66">
  <defs>
    <style>
      .cls-1 {
        fill: #160606;
      }
    </style>
  </defs>
  <!-- Generator: Adobe Illustrator 28.7.1, SVG Export Plug-In . SVG Version: 1.2.0 Build 142)  -->
  <g>
    <g id="Layer_1">
      <g id="Layer_1-2" data-name="Layer_1">
        <g>
          <path d="M53.4,13.8h0c-.3,0-.5-.2-.6-.4l-1.5-3.4-3.7-.7c-.3,0-.5-.3-.5-.5s0-.5.2-.7l2.8-2.5-.4-3.7c0-.3,0-.5.3-.7.2-.1.5-.2.8,0l3.2,1.9,3.4-1.6c.2-.1.5,0,.7,0,.2.2.3.4.2.7l-.8,3.6,2.5,2.7c.2.2.2.5,0,.7s-.3.4-.6.5l-3.7.3-1.8,3.2c0,.2-.4.4-.6.4v.2ZM49.3,8.1l2.6.5c.2,0,.4.2.5.4l1.1,2.4,1.3-2.3c0-.2.3-.3.6-.4l2.6-.2-1.8-2c-.2-.2-.2-.4-.2-.6l.6-2.6-2.4,1.1h-.7l-2.3-1.4.3,2.6c0,.2,0,.5-.2.6l-2,1.8h0Z"/>
          <path d="M34.1,30.1c-.3,0-.5-.2-.7-.4,0-.4,0-.8.4-.9,3.7-1.5,6.3-4.5,7.2-8.6.4-4,1.7-6.8,6.3-7.6.4,0,.8.2.8.6s-.2.8-.6.8c-3.3.6-4.7,2.2-5.1,6.4h0c-1,4.5-3.9,8-8.1,9.7h-.3,0Z"/>
          <path d="M34.1,13.5h-.2l-6.2,1.7h-.5c-.2,0-.3-.2-.3-.4l-1.7-6.2v-.5c0-.2.2-.3.4-.3l6.2-1.7c.4,0,.8,0,.9.5l1.7,6.2v.5c0,.1-.2.2-.3.3h0ZM28,13.8l4.8-1.3-1.3-4.8-4.8,1.3,1.3,4.8Z"/>
          <path d="M30.8,27.3c-.3.1-.6.1-.8,0-.3-.3-.3-.7,0-1,2.8-3.1,3.2-5.2,1.4-8.1-.2-.3-.1-.8.2-1,.3-.2.8-.1,1,.2,2.5,4,1.2,6.8-1.5,9.8,0,0-.1.1-.2.1h0Z"/>
          <g>
            <path d="M48.4,25.9c.7-1.1,1.9-1.9,3.2-2.2h0c1.3-.3,2.7,0,3.8.7s1.9,1.9,2.2,3.2c.3,1.3,0,2.7-.7,3.8-.7,1.1-1.9,1.9-3.2,2.2s-2.7,0-3.8-.7-1.9-1.9-2.2-3.2c-.3-1.1,0-2.3.4-3.4s.2-.3.3-.5h0ZM56.3,27.9c-.2-1-.8-1.8-1.6-2.3s-1.8-.7-2.8-.5h0c-1,.2-1.8.8-2.3,1.6-.5.8-.7,1.8-.5,2.8s.8,1.8,1.6,2.3,1.8.7,2.8.5,1.8-.8,2.3-1.6c0-.1,0-.2.2-.3.4-.7.5-1.6.3-2.4h0Z"/>
            <path d="M37.3,33.2c2.7-2.7,4.9-3.6,7.4-3,.4,0,.6.5.5.9,0,.4-.5.6-.9.5-2-.5-3.8.3-6.1,2.6-.3.3-.7.3-1,0s-.3-.6,0-.8,0,0,0-.2h0Z"/>
          </g>
        </g>
        <g>
          <path d="M1.8,21.8c1.2-3.6,2.8-5.4,5.4-5.9.4,0,.8.2.8.5s-.2.8-.5.8c-2,.4-3.3,1.9-4.3,5,0,.4-.5.6-.9.4-.3-.1-.5-.4-.5-.7s0-.1,0-.2h0Z"/>
          <path d="M23.3,16.9c-1.5,3.5-3.2,5.1-5.8,5.5-.4,0-.7-.2-.8-.6,0-.4.2-.7.6-.8,2-.3,3.4-1.6,4.7-4.6.2-.4.6-.5.9-.4s.5.4.4.7,0,.1,0,.2Z"/>
          <path class="cls-1" d="M14.5,11.2c-.4,0-.6-.3-.6-.6v-5.9c0-.4.3-.6.6-.6s.6.3.6.6v5.9c0,.4-.3.6-.6.6Z"/>
          <path class="cls-1" d="M9.2,36.5h-.2l-4.2-1.5c-.2,0-.4-.3-.4-.5s0-.4.2-.6l4.2-4.2c.2-.2.5-.2.7-.1s.4.3.4.6v5.7c0,.2-.1.4-.3.5-.1,0-.2,0-.4,0ZM6.2,34.1l2.3.9v-3.2l-2.3,2.3Z"/>
        </g>
        <g>
          <path d="M58.9,52.6c-2.6,2.8-4.7,3.8-7.3,3.3-.4,0-.6-.4-.6-.8s.4-.6.8-.6c2,.4,3.7-.4,5.9-2.9.3-.3.7-.3,1,0s.3.5.2.8,0,0,0,.2h0Z"/>
          <path d="M37.3,48.6c2.8-2.6,5-3.4,7.5-2.7.4,0,.6.5.5.9s-.5.6-.9.5c-2-.6-3.8,0-6.2,2.4-.3.3-.7.3-1,0s-.3-.6,0-.8,0,0,0-.2h.1Z"/>
          <path class="cls-1" d="M43.1,57.4c.3,0,.5.5.3.9l-2.3,5.4c0,.3-.5.5-.9.3s-.5-.5-.3-.9l2.3-5.4c0-.3.5-.5.9-.3Z"/>
          <path class="cls-1" d="M58,36.2s0,0,.2,0l3.2,3.1c.2.2.2.4.2.6s-.2.4-.4.5l-5.5,2.2c-.2,0-.5,0-.7-.2s-.2-.5,0-.7l2.3-5.2c0-.2.3-.3.5-.4h.4-.1ZM59.7,39.6l-1.8-1.7-1.3,2.9,3.1-1.2Z"/>
        </g>
        <path d="M42.6,42.8c-3.5,0-8.1-1.7-12.5-4.6-6.9-4.7-10.7-11.3-8.8-15.4.8-1.6,2.2-2,3.8-2.2.4,0,.7.2.7.6,0,.4-.2.7-.6.7-1.6.2-2.4.5-2.8,1.4-1.4,3.1,1.3,9.1,8.4,13.8,4.8,3.2,10,4.9,13.4,4.2,1.1-.2,2-.7,2.4-1.4.6-.8.7-1.9.3-3.3,0-.3.1-.7.5-.8.4,0,.7.1.8.5.5,1.7.3,3.2-.5,4.3-.7,1-1.8,1.7-3.3,2-.6.1-1.2.2-1.8.2Z"/>
        <path d="M15.1,56.8c-.1,0-.3,0-.4-.1-.2-.1-.3-.4-.2-.6l1.5-8.3c0-.4.4-.6.8-.5.4,0,.6.4.5.8l-1.3,7.1,29.1-13.8c.3-.1.7,0,.9.3.2.3,0,.7-.3.9l-30.2,14.3c0,0-.2,0-.3,0Z"/>
        <path d="M33,48.2s0,0-.1,0c-7.1-1.4-11.5-6.1-13.1-9.6-.9-2.1-1.1-3.9-.3-5.2.2-.3.6-.4.9-.2.3.2.4.6.2.9-.5.9-.4,2.4.4,4,1.6,3.6,6,7.7,12.2,8.9.4,0,.6.4.5.8,0,.3-.3.5-.6.5Z"/>
        <path d="M25.1,50.9c-4.2,0-6.9-2.8-7.5-5.4,0-.3.1-.7.5-.8.3,0,.7.1.8.5.5,2.1,2.7,4.4,6.3,4.4s.6.3.6.7-.3.7-.6.7Z"/>
      </g>
    </g>
  </g>
</svg>