<svg xmlns="http://www.w3.org/2000/svg" xmlns:xlink="http://www.w3.org/1999/xlink" version="1.1" width="256" height="256" viewBox="0 0 256 256" xml:space="preserve">

<defs>
</defs>
<g style="stroke: none; stroke-width: 0; stroke-dasharray: none; stroke-linecap: butt; stroke-linejoin: miter; stroke-miterlimit: 10; fill: none; fill-rule: nonzero; opacity: 1;" transform="translate(1.4065934065934016 1.4065934065934016) scale(2.81 2.81)" >
	<path d="M 58.827 78.782 c -0.697 0 -1.404 -0.089 -2.111 -0.271 c -4.096 -1.057 -7.99 -5.449 -7.459 -12.881 c 1.184 -7.165 7.813 -11.072 14.224 -14.851 c 8.08 -4.763 15.713 -9.261 14.681 -19.577 C 76.418 14.435 82.757 5.109 88.382 0.239 c 0.406 -0.353 1.026 -0.31 1.38 0.099 c 0.353 0.409 0.31 1.027 -0.099 1.38 C 84.39 6.283 78.451 15.07 80.108 31.004 c 1.157 11.565 -7.764 16.823 -15.634 21.461 c -6.301 3.714 -12.253 7.221 -13.277 13.395 c -0.471 6.65 2.941 9.966 6.008 10.757 c 3.362 0.868 6.636 -0.956 8.344 -4.645 c 1.03 -2.641 0.927 -5.098 -0.298 -6.516 c -1.248 -1.443 -3.647 -1.843 -6.762 -1.125 c -1.396 0.309 -2.764 0.802 -4.076 1.469 c -0.483 0.242 -1.071 0.053 -1.315 -0.429 c -0.245 -0.481 -0.053 -1.07 0.429 -1.315 c 1.459 -0.741 2.984 -1.292 4.532 -1.634 c 3.848 -0.885 6.931 -0.263 8.673 1.756 c 1.733 2.006 1.957 5.127 0.616 8.562 C 65.584 76.551 62.326 78.782 58.827 78.782 z" style="stroke: none; stroke-width: 1; stroke-dasharray: none; stroke-linecap: butt; stroke-linejoin: miter; stroke-miterlimit: 10; fill: rgb(0,0,0); fill-rule: nonzero; opacity: 1;" transform=" matrix(1 0 0 1 0 0) " stroke-linecap="round" />
	<path d="M 38.102 90 c -0.077 0 -0.156 -0.009 -0.235 -0.029 c -0.525 -0.129 -0.845 -0.658 -0.716 -1.184 c 0.674 -2.736 3.296 -12.163 8.775 -18.565 c 0.353 -0.41 0.971 -0.456 1.38 -0.107 c 0.41 0.352 0.459 0.969 0.107 1.38 c -5.198 6.074 -7.714 15.13 -8.362 17.761 C 38.941 89.702 38.541 90 38.102 90 z" style="stroke: none; stroke-width: 1; stroke-dasharray: none; stroke-linecap: butt; stroke-linejoin: miter; stroke-miterlimit: 10; fill: rgb(0,0,0); fill-rule: nonzero; opacity: 1;" transform=" matrix(1 0 0 1 0 0) " stroke-linecap="round" />
	<path d="M 0.979 90 c -0.274 0 -0.546 -0.115 -0.74 -0.338 c -0.354 -0.408 -0.31 -1.026 0.099 -1.38 c 1.503 -1.301 3.68 -2.498 5.984 -3.766 c 4.995 -2.747 10.656 -5.859 11.635 -11.026 c 0.719 -3.796 -1.223 -8.496 -5.773 -13.969 c -3.567 -4.005 -4.971 -7.292 -4.27 -10.026 c 1.078 -4.206 6.699 -6.203 13.207 -8.515 c 8.169 -2.902 17.429 -6.192 19.396 -14.454 c 0.125 -0.525 0.655 -0.85 1.178 -0.725 c 0.526 0.125 0.85 0.652 0.725 1.178 c -2.213 9.296 -12.432 12.927 -20.644 15.844 c -5.732 2.037 -11.147 3.961 -11.967 7.157 c -0.527 2.055 0.735 4.759 3.858 8.265 c 5.033 6.053 7.058 11.151 6.213 15.61 c -1.151 6.072 -7.507 9.568 -12.615 12.376 c -2.211 1.216 -4.3 2.364 -5.646 3.53 C 1.434 89.922 1.206 90 0.979 90 z" style="stroke: none; stroke-width: 1; stroke-dasharray: none; stroke-linecap: butt; stroke-linejoin: miter; stroke-miterlimit: 10; fill: rgb(0,0,0); fill-rule: nonzero; opacity: 1;" transform=" matrix(1 0 0 1 0 0) " stroke-linecap="round" />
	<path d="M 30.803 27.971 c -2.35 0 -4.237 -0.729 -5.463 -2.148 c -1.733 -2.007 -1.957 -5.127 -0.616 -8.562 c 1.854 -4.008 5.198 -6.244 8.982 -6.03 c 3.829 0.215 7.058 2.903 8.428 7.015 c 0.171 0.513 -0.107 1.067 -0.619 1.237 c -0.511 0.171 -1.067 -0.107 -1.237 -0.619 c -1.111 -3.335 -3.671 -5.511 -6.682 -5.68 c -2.955 -0.174 -5.593 1.646 -7.074 4.843 c -1.029 2.641 -0.927 5.098 0.298 6.516 c 1.246 1.444 3.647 1.844 6.761 1.125 C 44.691 23.217 51.026 8.849 53.02 0.745 c 0.129 -0.524 0.655 -0.843 1.184 -0.717 c 0.524 0.129 0.845 0.659 0.716 1.184 c -2.101 8.543 -8.869 23.709 -20.907 26.366 C 32.87 27.841 31.796 27.971 30.803 27.971 z" style="stroke: none; stroke-width: 1; stroke-dasharray: none; stroke-linecap: butt; stroke-linejoin: miter; stroke-miterlimit: 10; fill: rgb(0,0,0); fill-rule: nonzero; opacity: 1;" transform=" matrix(1 0 0 1 0 0) " stroke-linecap="round" />
	<path d="M 46.919 47.242 c -0.203 0 -0.404 -0.063 -0.575 -0.187 c -0.301 -0.219 -0.452 -0.589 -0.389 -0.956 l 0.769 -4.48 l -3.255 -3.172 c -0.267 -0.26 -0.363 -0.649 -0.248 -1.003 c 0.115 -0.354 0.421 -0.612 0.79 -0.666 l 4.499 -0.654 l 2.012 -4.075 c 0.329 -0.668 1.425 -0.668 1.754 0 l 2.012 4.075 l 4.498 0.654 c 0.369 0.054 0.674 0.312 0.79 0.666 c 0.115 0.354 0.019 0.743 -0.247 1.003 l -3.256 3.172 l 0.769 4.48 c 0.063 0.367 -0.088 0.738 -0.389 0.956 c -0.3 0.221 -0.702 0.249 -1.03 0.075 l -4.024 -2.115 l -4.024 2.115 C 47.232 47.205 47.075 47.242 46.919 47.242 z M 46.254 38.429 l 2.204 2.148 c 0.23 0.225 0.335 0.549 0.281 0.866 l -0.52 3.033 l 2.725 -1.432 c 0.285 -0.15 0.625 -0.15 0.909 0 l 2.725 1.432 l -0.521 -3.033 c -0.054 -0.317 0.051 -0.641 0.281 -0.866 l 2.204 -2.148 l -3.045 -0.443 c -0.319 -0.046 -0.594 -0.246 -0.737 -0.535 l -1.362 -2.759 l -1.362 2.759 c -0.142 0.289 -0.417 0.489 -0.737 0.535 L 46.254 38.429 z" style="stroke: none; stroke-width: 1; stroke-dasharray: none; stroke-linecap: butt; stroke-linejoin: miter; stroke-miterlimit: 10; fill: rgb(0,0,0); fill-rule: nonzero; opacity: 1;" transform=" matrix(1 0 0 1 0 0) " stroke-linecap="round" />
	<path d="M 65.596 22.301 c -3.422 0 -6.206 -2.784 -6.206 -6.206 s 2.784 -6.206 6.206 -6.206 s 6.207 2.784 6.207 6.206 S 69.018 22.301 65.596 22.301 z M 65.596 11.845 c -2.343 0 -4.249 1.906 -4.249 4.249 c 0 2.343 1.906 4.25 4.249 4.25 c 2.343 0 4.25 -1.906 4.25 -4.25 C 69.846 13.751 67.94 11.845 65.596 11.845 z" style="stroke: none; stroke-width: 1; stroke-dasharray: none; stroke-linecap: butt; stroke-linejoin: miter; stroke-miterlimit: 10; fill: rgb(0,0,0); fill-rule: nonzero; opacity: 1;" transform=" matrix(1 0 0 1 0 0) " stroke-linecap="round" />
	<path d="M 10.213 36.751 c -2.551 0 -4.627 -2.075 -4.627 -4.627 s 2.075 -4.627 4.627 -4.627 s 4.627 2.075 4.627 4.627 S 12.764 36.751 10.213 36.751 z M 10.213 29.454 c -1.472 0 -2.67 1.198 -2.67 2.67 c 0 1.472 1.198 2.67 2.67 2.67 c 1.473 0 2.671 -1.198 2.671 -2.67 C 12.883 30.652 11.685 29.454 10.213 29.454 z" style="stroke: none; stroke-width: 1; stroke-dasharray: none; stroke-linecap: butt; stroke-linejoin: miter; stroke-miterlimit: 10; fill: rgb(0,0,0); fill-rule: nonzero; opacity: 1;" transform=" matrix(1 0 0 1 0 0) " stroke-linecap="round" />
	<path d="M 81.626 65.12 c -2.551 0 -4.627 -2.076 -4.627 -4.627 c 0 -2.551 2.076 -4.627 4.627 -4.627 s 4.627 2.076 4.627 4.627 C 86.252 63.044 84.176 65.12 81.626 65.12 z M 81.626 57.823 c -1.472 0 -2.67 1.198 -2.67 2.67 c 0 1.472 1.198 2.67 2.67 2.67 s 2.67 -1.198 2.67 -2.67 C 84.296 59.021 83.098 57.823 81.626 57.823 z" style="stroke: none; stroke-width: 1; stroke-dasharray: none; stroke-linecap: butt; stroke-linejoin: miter; stroke-miterlimit: 10; fill: rgb(0,0,0); fill-rule: nonzero; opacity: 1;" transform=" matrix(1 0 0 1 0 0) " stroke-linecap="round" />
	<path d="M 26.843 58.272 c -2.551 0 -4.627 -2.076 -4.627 -4.627 c 0 -2.551 2.075 -4.627 4.627 -4.627 s 4.627 2.076 4.627 4.627 C 31.47 56.196 29.394 58.272 26.843 58.272 z M 26.843 50.976 c -1.472 0 -2.67 1.198 -2.67 2.67 c 0 1.472 1.198 2.67 2.67 2.67 c 1.473 0 2.671 -1.198 2.671 -2.67 C 29.514 52.174 28.316 50.976 26.843 50.976 z" style="stroke: none; stroke-width: 1; stroke-dasharray: none; stroke-linecap: butt; stroke-linejoin: miter; stroke-miterlimit: 10; fill: rgb(0,0,0); fill-rule: nonzero; opacity: 1;" transform=" matrix(1 0 0 1 0 0) " stroke-linecap="round" />
	<path d="M 77.297 90 c -0.203 0 -0.404 -0.063 -0.575 -0.187 c -0.301 -0.219 -0.452 -0.589 -0.389 -0.956 l 0.768 -4.48 l -3.256 -3.174 c -0.267 -0.26 -0.362 -0.649 -0.247 -1.002 c 0.116 -0.354 0.421 -0.612 0.79 -0.666 l 4.499 -0.654 l 2.011 -4.075 c 0.329 -0.669 1.425 -0.669 1.754 0 l 2.012 4.075 l 4.499 0.654 c 0.369 0.054 0.674 0.311 0.79 0.666 c 0.115 0.353 0.019 0.742 -0.247 1.002 l -3.256 3.174 l 0.768 4.48 c 0.063 0.367 -0.088 0.738 -0.389 0.956 c -0.302 0.22 -0.701 0.248 -1.031 0.075 l -4.023 -2.115 l -4.022 2.115 C 77.609 89.963 77.453 90 77.297 90 z M 81.775 85.688 c 0.157 0 0.312 0.037 0.456 0.113 l 2.724 1.432 l -0.52 -3.033 c -0.054 -0.317 0.051 -0.641 0.281 -0.866 l 2.204 -2.149 l -3.046 -0.443 c -0.319 -0.046 -0.594 -0.246 -0.737 -0.535 l -1.362 -2.759 l -1.361 2.759 c -0.142 0.289 -0.417 0.489 -0.737 0.535 l -3.046 0.443 l 2.204 2.149 c 0.23 0.225 0.335 0.548 0.281 0.866 l -0.52 3.033 l 2.723 -1.432 C 81.462 85.726 81.618 85.688 81.775 85.688 z" style="stroke: none; stroke-width: 1; stroke-dasharray: none; stroke-linecap: butt; stroke-linejoin: miter; stroke-miterlimit: 10; fill: rgb(0,0,0); fill-rule: nonzero; opacity: 1;" transform=" matrix(1 0 0 1 0 0) " stroke-linecap="round" />
	<path d="M 3.747 15.695 c -0.203 0 -0.405 -0.063 -0.575 -0.187 c -0.301 -0.219 -0.452 -0.59 -0.389 -0.957 l 0.769 -4.48 L 0.295 6.899 C 0.029 6.639 -0.067 6.25 0.048 5.896 c 0.115 -0.354 0.421 -0.612 0.79 -0.666 l 4.498 -0.653 l 2.011 -4.076 c 0.33 -0.668 1.424 -0.668 1.755 0 l 2.011 4.076 l 4.498 0.653 c 0.369 0.053 0.675 0.312 0.79 0.666 c 0.115 0.354 0.019 0.743 -0.247 1.003 l -3.255 3.173 l 0.769 4.48 c 0.063 0.367 -0.088 0.738 -0.389 0.957 c -0.301 0.22 -0.7 0.248 -1.03 0.075 l -4.023 -2.115 l -4.023 2.115 C 4.058 15.658 3.902 15.695 3.747 15.695 z M 8.225 11.384 c 0.156 0 0.313 0.037 0.455 0.112 l 2.724 1.432 l -0.52 -3.033 c -0.054 -0.317 0.051 -0.641 0.281 -0.866 l 2.204 -2.148 l -3.046 -0.442 c -0.319 -0.046 -0.594 -0.246 -0.737 -0.535 L 8.225 3.144 L 6.863 5.904 C 6.72 6.193 6.445 6.393 6.126 6.439 L 3.081 6.882 L 5.285 9.03 c 0.23 0.225 0.335 0.549 0.281 0.866 l -0.52 3.033 l 2.724 -1.432 C 7.912 11.422 8.068 11.384 8.225 11.384 z" style="stroke: none; stroke-width: 1; stroke-dasharray: none; stroke-linecap: butt; stroke-linejoin: miter; stroke-miterlimit: 10; fill: rgb(0,0,0); fill-rule: nonzero; opacity: 1;" transform=" matrix(1 0 0 1 0 0) " stroke-linecap="round" />
	<path d="M 31.867 76.146 c -1.545 0 -2.802 -1.257 -2.802 -2.803 c 0 -1.545 1.257 -2.802 2.802 -2.802 c 1.545 0 2.802 1.257 2.802 2.802 C 34.669 74.889 33.412 76.146 31.867 76.146 z M 31.867 72.497 c -0.467 0 -0.846 0.379 -0.846 0.845 c 0 0.467 0.379 0.846 0.846 0.846 c 0.467 0 0.846 -0.379 0.846 -0.846 C 32.713 72.877 32.333 72.497 31.867 72.497 z" style="stroke: none; stroke-width: 1; stroke-dasharray: none; stroke-linecap: butt; stroke-linejoin: miter; stroke-miterlimit: 10; fill: rgb(0,0,0); fill-rule: nonzero; opacity: 1;" transform=" matrix(1 0 0 1 0 0) " stroke-linecap="round" />
</g>
</svg>